<svg width="30" height="29" viewBox="0 0 30 29" xmlns="http://www.w3.org/2000/svg">
<path d="M3.56895 10.0658C3.57575 10.0695 4.92565 10.7746 6.203 11.5059V3.41985C6.203 2.86165 6.4313 2.35425 6.7988 1.98675C7.1662 1.61935 7.6735 1.39115 8.2317 1.39115H11.739C11.7632 1.39115 11.7869 1.39345 11.8099 1.39785C12.1836 1.19425 12.5623 1.19065 12.6561 1.19325L13.3692 1.15795C13.5426 0.893049 13.9131 0.498047 14.5815 0.498047C15.2461 0.498047 15.6556 0.890847 15.8488 1.14075C16.0241 1.14735 16.32 1.16135 16.7588 1.18995C17.0647 1.20985 17.3048 1.28315 17.493 1.39675C17.514 1.39315 17.5355 1.39115 17.5575 1.39115H20.8655C21.4227 1.39115 21.9297 1.61945 22.2972 1.98685L22.2985 1.98825C22.6659 2.35575 22.8942 2.86275 22.8942 3.41985V12.3848C24.2736 11.6532 26.6027 10.6007 26.8471 10.4906C26.8655 10.481 26.8848 10.4728 26.9052 10.4662C27.1018 10.4024 27.3131 10.5099 27.3769 10.7065C27.564 11.2798 27.8123 11.9027 28.0759 12.564C29.4821 16.0925 31.3058 20.669 26.7772 23.5448C26.7589 23.558 26.7392 23.5696 26.718 23.5796C26.5312 23.6677 26.3079 23.5877 26.2198 23.4009C26.215 23.3909 25.5763 22.0464 24.7874 20.3355C24.3543 20.6153 23.5535 21.1572 23.3003 21.4948C23.0234 21.864 22.4308 22.2599 22.0183 22.5086C22.3126 22.8931 22.8963 23.8581 22.0835 24.6477C21.5186 25.1964 20.9823 25.174 20.5817 25.0248C20.5245 25.4915 20.3263 26.1268 19.6834 26.2935C19.2967 26.3937 18.9468 26.3509 18.6705 26.2671C18.635 26.6206 18.503 27.0273 18.1236 27.2728C17.7908 27.4882 17.4478 27.5558 17.1307 27.5279C16.9352 27.5107 16.7495 27.4564 16.5824 27.3775C16.569 27.4364 16.5502 27.4972 16.5248 27.5598C16.4613 27.7153 16.3579 27.8812 16.1985 28.0521C15.4573 28.8463 14.5273 28.419 14.3496 28.3262C14.3238 28.3146 14.2988 28.3 14.2753 28.2821L13.4273 27.6318C13.2641 27.7492 13.0747 27.8197 12.8802 27.8408C12.5893 27.8726 12.2854 27.7933 12.0393 27.5955L11.8502 27.4436C11.6044 27.2461 11.4614 26.9655 11.4297 26.6736L11.4272 26.6479C11.2681 26.7397 11.0908 26.7906 10.9113 26.7998C10.6179 26.8147 10.3192 26.7186 10.0855 26.5078L9.9052 26.3452C9.671 26.1339 9.5444 25.8459 9.5293 25.5525C9.5275 25.5165 9.5273 25.4804 9.5288 25.4444C9.2585 25.455 8.983 25.3706 8.7576 25.1858L8.5698 25.0317C8.3261 24.8317 8.1862 24.5505 8.1575 24.2589C8.1423 24.1049 8.1582 23.9478 8.206 23.7977C7.9131 23.8058 7.6168 23.7029 7.3885 23.4871L7.2122 23.3203C6.9828 23.1035 6.8628 22.8126 6.8547 22.519C6.8472 22.2533 6.9309 21.9847 7.1074 21.7667C6.9091 21.3157 6.5554 21.0077 6.1348 20.7831C5.70945 20.556 5.20954 20.4077 4.72244 20.2853C3.87684 21.7667 3.22225 22.8914 3.21715 22.9004C3.11365 23.0791 2.88464 23.1401 2.70594 23.0366C2.67724 23.02 2.65154 23.0001 2.62914 22.9778C-1.70076 19.1577 0.770151 14.5318 2.55235 11.1964C2.73525 10.8542 2.91074 10.5258 3.06354 10.2271C3.15734 10.0435 3.38234 9.97065 3.56594 10.0644L3.56895 10.0658ZM11.1502 2.14115H8.2317C7.8804 2.14115 7.5607 2.28515 7.3289 2.51695C7.097 2.74885 6.953 3.06855 6.953 3.41985V11.9256L6.9525 11.9442C7.4954 12.2699 7.9641 12.5728 8.2249 12.7889V3.92135C8.2249 3.71425 8.3928 3.54635 8.5999 3.54635H11.0021C11.0133 3.32515 11.0219 3.05215 11.0168 2.68775C11.0146 2.65825 11.0157 2.62805 11.0208 2.59755C11.0501 2.42515 11.0946 2.27395 11.1502 2.14115ZM11.1781 4.29635H8.9749V14.0648C9.722 14.4092 10.7752 14.8488 11.2836 14.8488H11.2921C11.7056 14.8488 11.7786 14.8488 12.1188 14.881C12.1321 14.8823 12.1452 14.8843 12.158 14.8869C12.6826 14.4651 13.684 13.6608 14.139 13.3033C14.8525 12.7427 15.9913 12.9767 16.1351 13.009C16.2585 13.0297 18.6568 13.4304 19.8889 13.5842V4.29635H17.8405C17.814 4.30245 17.7864 4.30575 17.758 4.30585L11.3322 4.33895C11.2765 4.33585 11.2244 4.32085 11.1781 4.29635ZM17.3486 3.56095L17.3688 3.55575L17.3333 2.58125C17.3267 2.39695 17.2944 2.23275 17.2078 2.12535C17.1262 2.02405 16.9735 1.95395 16.7119 1.93695C15.9725 1.88875 15.648 1.88475 15.648 1.88475C15.4936 1.88475 15.3609 1.79135 15.3035 1.65805C15.2547 1.57545 15.0324 1.24805 14.5815 1.24805C14.0973 1.24805 13.9476 1.64995 13.9476 1.64995C13.8918 1.80225 13.7473 1.89645 13.5938 1.89555L12.6725 1.94115L12.6315 1.94085C12.6295 1.94105 11.9163 1.89135 11.7639 2.69355C11.7691 3.08275 11.7603 3.36445 11.749 3.58985L17.3486 3.56095ZM18.1161 3.54635H20.2639C20.471 3.54635 20.6389 3.71425 20.6389 3.92135V13.6334C21.0031 13.5713 21.5962 13.2386 21.856 13.0848C21.8762 13.0396 21.9056 12.9977 21.9443 12.9621C21.989 12.921 22.0574 12.8708 22.1446 12.8138L22.1442 12.799V3.41985C22.1442 3.06835 22.0004 2.74815 21.769 2.51635C21.5372 2.28495 21.2172 2.14115 20.8655 2.14115H18.0255C18.0588 2.27355 18.0752 2.41265 18.0803 2.55485L18.1161 3.54635ZM10.5535 6.68205C10.3473 6.67965 10.182 6.51035 10.1844 6.30415C10.1868 6.09795 10.3561 5.93265 10.5623 5.93505L17.4856 6.02325C17.6918 6.02565 17.8571 6.19495 17.8547 6.40115C17.8523 6.60735 17.683 6.77265 17.4768 6.77025L10.5535 6.68205ZM10.5535 8.08205C10.3473 8.07965 10.182 7.91035 10.1844 7.70415C10.1868 7.49795 10.3561 7.33265 10.5623 7.33505L17.4856 7.42325C17.6918 7.42565 17.8571 7.59495 17.8547 7.80115C17.8523 8.00735 17.683 8.17265 17.4768 8.17025L10.5535 8.08205ZM10.5535 9.58205C10.3473 9.57965 10.182 9.41035 10.1844 9.20415C10.1868 8.99795 10.3561 8.83265 10.5623 8.83505L17.4856 8.92325C17.6918 8.92565 17.8571 9.09495 17.8547 9.30115C17.8523 9.50735 17.683 9.67265 17.4768 9.67025L10.5535 9.58205ZM10.5535 11.0821C10.3473 11.0797 10.182 10.9104 10.1844 10.7042C10.1868 10.498 10.3561 10.3326 10.5623 10.335L17.4856 10.4232C17.6918 10.4256 17.8571 10.5949 17.8547 10.8011C17.8523 11.0073 17.683 11.1726 17.4768 11.1702L10.5535 11.0821ZM10.5535 12.5821C10.3473 12.5797 10.182 12.4104 10.1844 12.2042C10.1868 11.998 10.3561 11.8326 10.5623 11.835L13.4724 11.8721C13.6786 11.8745 13.8439 12.0438 13.8415 12.25C13.8391 12.4562 13.6698 12.6216 13.4636 12.6192L10.5535 12.5821ZM15.9006 26.8657C15.3532 26.3863 14.3119 25.4882 14.3084 25.4852C14.1523 25.3502 14.1353 25.1139 14.2703 24.9578C14.4053 24.8017 14.6415 24.7848 14.7976 24.9198C14.8019 24.9235 16.3088 26.2228 16.6713 26.5502C16.8031 26.6693 16.9889 26.7627 17.1951 26.7809C17.3606 26.7955 17.5406 26.7596 17.7164 26.6458C17.9741 26.4791 17.9537 26.0549 17.9269 25.8514L15.1148 23.3696C14.9603 23.2329 14.9459 22.9966 15.0826 22.8421C15.2193 22.6876 15.4555 22.6733 15.61 22.81L18.5047 25.3648C18.5529 25.4016 18.9712 25.706 19.4958 25.57C19.892 25.4674 19.8604 24.7111 19.8521 24.5832C19.2182 24.0733 16.6253 21.825 16.6172 21.818C16.4611 21.683 16.4441 21.4468 16.5791 21.2907C16.7141 21.1346 16.9503 21.1177 17.1064 21.2527C17.1152 21.2603 20.2299 23.9607 20.3551 24.0323C20.3929 24.0547 20.4211 24.075 20.4586 24.1015L20.4601 24.103C20.6365 24.2283 21.1019 24.5586 21.5622 24.1115C22.0249 23.662 21.4429 22.9754 21.3427 22.8641L21.168 22.7163L21.1594 22.709L14.5116 17.0855C14.2377 17.2252 14.1659 17.5176 14.0633 17.9378C13.9455 18.42 13.7969 19.028 13.3713 19.7604C12.117 21.9189 11.0706 19.7998 10.9719 19.5889C10.9414 19.5293 10.9266 19.461 10.9322 19.3894C10.9324 19.3858 11.0406 18.1087 10.9763 17.0152C10.938 16.3641 11.1416 15.9029 11.365 15.5988H11.2921H11.2836C10.4206 15.5988 8.5216 14.6871 7.9613 14.4085C7.3019 15.7112 6.1231 17.8218 5.10545 19.6129C5.57615 19.738 6.0543 19.8932 6.4864 20.1239C6.9585 20.3759 7.3696 20.7128 7.6507 21.1869L7.8922 20.9314C8.109 20.7019 8.3999 20.5819 8.6935 20.5738C8.9867 20.5655 9.2834 20.6684 9.5119 20.8844L9.6882 21.0511C9.8319 21.1869 9.9327 21.3518 9.99 21.5282C10.1696 21.3785 10.3874 21.291 10.6111 21.2689C10.9027 21.2402 11.2058 21.3225 11.45 21.5228L11.451 21.5237L11.6378 21.6769C11.8815 21.8769 12.0214 22.1582 12.0501 22.4498C12.0746 22.6991 12.0179 22.9567 11.8758 23.1789C12.1023 23.2062 12.3225 23.3007 12.5038 23.4642L12.6838 23.6266C12.918 23.8379 13.0446 24.126 13.0597 24.4194C13.0713 24.6473 13.0158 24.8788 12.8914 25.0803C13.1232 25.0922 13.3538 25.1746 13.5483 25.3309L13.7374 25.4828C13.9832 25.6803 14.1263 25.9608 14.158 26.2528C14.1889 26.5358 14.1148 26.8308 13.9288 27.0732L14.7108 27.6728C14.8234 27.7295 15.2899 27.9289 15.6507 27.5423C15.7436 27.4428 15.8 27.3554 15.8305 27.28L15.8309 27.2788C15.859 27.2079 15.8639 27.1492 15.8571 27.1025C15.8447 27.0176 15.8617 26.9352 15.9006 26.8657ZM24.4723 19.65C23.4968 17.5205 22.3979 15.0505 21.9891 13.8689C21.5984 14.0822 20.994 14.3737 20.5807 14.3902C19.99 14.4138 16.018 13.7482 16.0067 13.7463L15.9681 13.7378C15.838 13.7092 15.0362 13.5508 14.6018 13.8921C13.998 14.3665 12.293 15.739 12.2882 15.7428C12.2674 15.7594 12.2453 15.7733 12.2224 15.7848C12.1424 15.8341 11.6754 16.1581 11.7232 16.9712C11.7799 17.9351 11.7115 19.0118 11.6872 19.3444C11.8163 19.5814 12.2409 20.2165 12.7238 19.3854C13.0967 18.7437 13.2306 18.1962 13.3367 17.7621C13.5216 17.0051 13.6416 16.5161 14.478 16.3058C14.5965 16.2684 14.7308 16.2908 14.8326 16.3769L21.4511 21.9756C21.7949 21.7805 22.4518 21.3811 22.7027 21.0466C23.0439 20.5917 24.038 19.9281 24.4723 19.65ZM13.2686 26.0658L13.0796 25.9139C12.9949 25.8459 12.8888 25.8187 12.7866 25.8298C12.6855 25.8408 12.5885 25.8903 12.5205 25.975L12.258 26.3015C12.19 26.3862 12.1628 26.4922 12.1739 26.5944C12.1849 26.6955 12.2342 26.7925 12.319 26.8606L12.5081 27.0125C12.5928 27.0805 12.6988 27.1077 12.801 27.0966C12.9021 27.0856 12.9991 27.0363 13.0672 26.9515L13.3297 26.625C13.3977 26.5403 13.4249 26.4343 13.4138 26.3321C13.4028 26.231 13.3534 26.1339 13.2686 26.0658ZM12.1828 24.1832L11.9925 24.0119C11.9128 23.9447 11.8132 23.914 11.7157 23.919C11.6183 23.9239 11.5225 23.9646 11.4505 24.0394L10.378 25.2275C10.3046 25.3088 10.2712 25.413 10.2763 25.5146C10.2815 25.616 10.3254 25.7156 10.4063 25.7886L10.5965 25.96C10.6762 26.0272 10.7758 26.0578 10.8733 26.0528C10.9707 26.0479 11.0666 26.0074 11.1386 25.9325L12.211 24.7444C12.2844 24.6631 12.3179 24.559 12.3127 24.4573C12.3075 24.3559 12.2637 24.2562 12.1828 24.1832ZM11.1632 22.2541L11.0001 22.1203C10.9856 22.1102 10.9716 22.099 10.9582 22.0867C10.8774 22.0276 10.7794 22.0038 10.6843 22.0131C10.5896 22.0224 10.4983 22.065 10.4305 22.1386C10.4202 22.1528 10.4087 22.1664 10.3961 22.1794L8.9888 23.8946C8.92 23.9784 8.8917 24.0838 8.9017 24.1857C8.9117 24.2875 8.9602 24.3855 9.0444 24.4546L9.2075 24.5883C9.222 24.5983 9.2361 24.6096 9.2494 24.6219C9.3302 24.681 9.4281 24.7048 9.5233 24.6955C9.6179 24.6862 9.7094 24.6436 9.7772 24.57C9.7875 24.5558 9.7989 24.5422 9.8115 24.5292L11.2189 22.8141C11.2877 22.7303 11.3159 22.6249 11.3059 22.5229C11.2959 22.4211 11.2474 22.3232 11.1632 22.2541ZM9.1756 21.5961L8.9993 21.4294C8.9195 21.3539 8.816 21.318 8.7141 21.3208C8.6125 21.3236 8.5118 21.365 8.4372 21.444L7.7102 22.2132C7.6347 22.293 7.5988 22.3965 7.6016 22.4984C7.6044 22.6 7.6458 22.7007 7.7248 22.7753L7.9011 22.9421C7.9809 23.0176 8.0844 23.0534 8.1863 23.0506C8.2879 23.0478 8.3885 23.0065 8.4632 22.9275L9.1902 22.1582C9.2657 22.0784 9.3016 21.9749 9.2988 21.873C9.296 21.7714 9.2546 21.6707 9.1756 21.5961ZM26.8001 11.3325C25.846 11.7665 23.3393 12.921 22.6088 13.3967C22.9783 14.743 25.9344 21.0437 26.7105 22.6881C30.2844 20.1235 28.6501 16.0225 27.3815 12.8394C27.1697 12.3079 26.9674 11.8007 26.8001 11.3325ZM7.6755 13.2904C7.0031 12.7472 4.46844 11.387 3.55444 10.9027C3.44354 11.1141 3.32905 11.3282 3.21155 11.548C1.59385 14.5757 -0.63135 18.7411 2.80465 22.1203C3.73485 20.5136 7.142 14.602 7.6755 13.2904Z"/>
</svg>
