<svg width="443" height="436" viewBox="0 0 443 436" xmlns="http://www.w3.org/2000/svg">
<g clip-path="url(#clip0_2616_1578)">
<path d="M255.998 218.402C255.998 223.521 254.466 228.639 251.648 232.478L123.647 424.478C119.04 431.392 111.361 436 102.398 436H25.5984C11.5224 436 0 424.478 0 410.402C0 405.278 1.5372 400.16 4.35 396.321L122.878 218.402L4.35 40.478C1.5372 36.6404 0 31.5212 0 26.402C0 12.3212 11.5224 0.798828 25.5984 0.798828H102.398C111.361 0.798828 119.039 5.40682 123.647 12.3212L251.648 204.321C254.466 208.16 255.998 213.278 255.998 218.402ZM512.001 218.402C512.001 223.521 510.464 228.639 507.646 232.478L379.65 424.478C375.042 431.392 367.359 436 358.401 436H281.601C267.521 436 255.998 424.478 255.998 410.402C255.998 405.278 257.535 400.16 260.353 396.321L378.881 218.402L260.353 40.478C257.535 36.6392 255.998 31.5212 255.998 26.402C255.998 12.3212 267.521 0.798828 281.601 0.798828H358.401C367.359 0.798828 375.042 5.40682 379.65 12.3212L507.646 204.321C510.464 208.16 512.001 213.278 512.001 218.402Z" fill="#707173"/>
</g>
<g clip-path="url(#clip1_2616_1578)">
<path d="M442.998 218.402C442.998 223.521 441.466 228.639 438.648 232.478L310.647 424.478C306.04 431.392 298.361 436 289.398 436H212.598C198.522 436 187 424.478 187 410.402C187 405.278 188.537 400.16 191.35 396.321L309.878 218.402L191.35 40.478C188.537 36.6404 187 31.5212 187 26.402C187 12.3212 198.522 0.798828 212.598 0.798828H289.398C298.361 0.798828 306.039 5.40682 310.647 12.3212L438.648 204.321C441.466 208.16 442.998 213.278 442.998 218.402ZM699.001 218.402C699.001 223.521 697.464 228.639 694.646 232.478L566.65 424.478C562.042 431.392 554.359 436 545.401 436H468.601C454.521 436 442.998 424.478 442.998 410.402C442.998 405.278 444.535 400.16 447.353 396.321L565.881 218.402L447.353 40.478C444.535 36.6392 442.998 31.5212 442.998 26.402C442.998 12.3212 454.521 0.798828 468.601 0.798828H545.401C554.359 0.798828 562.042 5.40682 566.65 12.3212L694.646 204.321C697.464 208.16 699.001 213.278 699.001 218.402Z" fill="#707173"/>
</g>
<defs>
<clipPath id="clip0_2616_1578">
<rect width="256" height="436" fill="#707173"/>
</clipPath>
<clipPath id="clip1_2616_1578">
<rect width="256" height="436" fill="#707173" transform="translate(187)"/>
</clipPath>
</defs>
</svg>
