<svg xmlns="http://www.w3.org/2000/svg" width="38" height="30" viewBox="0 0 38 30"><path d="M12.698 8.74333C12.6615 10.0152 12.8213 15.0356 17.6308 15.0178C22.4292 15 22.4815 9.98632 22.4172 8.70962C22.0116 8.61952 21.7015 8.39842 21.48 8.04292C21.2319 7.64462 21.1143 7.08302 21.1143 6.35132C21.1143 5.50372 20.4926 5.65742 20.4909 5.65772C20.4608 5.66442 20.4294 5.66752 20.3972 5.66652C20.3853 5.66622 16.2259 5.53482 14.8923 5.60042C14.2712 5.63092 14.1568 5.93602 14.174 6.28812C14.1827 6.46402 14.218 6.66932 14.252 6.86692L14.2736 6.99542C14.364 7.53862 14.2125 7.97472 13.7768 8.30502L13.7761 8.30413C13.5211 8.49723 13.1653 8.64363 12.698 8.74333V8.74333ZM27.434 11.6757C27.2278 11.6733 27.0625 11.504 27.0649 11.2978C27.0673 11.0916 27.2366 10.9263 27.4428 10.9287L34.3661 11.0169C34.5723 11.0193 34.7376 11.1886 34.7352 11.3948C34.7328 11.601 34.5635 11.7663 34.3573 11.7639L27.434 11.6757ZM27.434 13.0757C27.2278 13.0733 27.0625 12.904 27.0649 12.6978C27.0673 12.4916 27.2366 12.3263 27.4428 12.3287L34.3661 12.4169C34.5723 12.4193 34.7376 12.5886 34.7352 12.7948C34.7328 13.001 34.5635 13.1663 34.3573 13.1639L27.434 13.0757ZM27.434 14.5757C27.2278 14.5733 27.0625 14.404 27.0649 14.1978C27.0673 13.9916 27.2366 13.8263 27.4428 13.8287L30.3529 13.8658C30.5591 13.8682 30.7244 14.0375 30.722 14.2437C30.7196 14.4499 30.5503 14.6152 30.3441 14.6128L27.434 14.5757ZM26.8073 8.90522H35.2533C35.6353 8.90522 35.9827 9.06143 36.2341 9.31283C36.4852 9.56553 36.6417 9.91293 36.6417 10.2936V15.1893C36.6417 15.5713 36.4855 15.9187 36.2341 16.1701C35.9827 16.4215 35.6353 16.5777 35.2533 16.5777H29.0203C29.0207 17.3698 28.7758 19.0175 26.7907 19.4217C27.2421 19.976 27.5697 20.6251 27.6586 21.2475C27.8846 22.8297 27.7061 25.4628 27.7056 25.4703L27.6939 25.6467L27.5489 25.7501C27.5301 25.7635 21.0945 30.4879 8.21769 26.598L8.21789 26.5974C8.07259 26.5534 7.96259 26.4229 7.95259 26.2625L7.85499 24.7605C7.25269 24.8516 6.47059 24.8677 5.79329 24.7489C5.11559 24.6301 4.51999 24.3717 4.23549 23.9135C3.46889 22.6794 3.48809 20.5727 3.50479 18.741C3.51289 17.8496 3.52039 17.0262 3.43319 16.434C3.36839 15.994 3.26779 15.7239 3.09019 15.75C3.02719 15.7592 2.95729 15.7647 2.88119 15.7659C2.49739 15.7724 2.08329 15.6454 1.74289 15.3564C1.41099 15.0747 1.14999 14.6434 1.06099 14.0396C1.04299 13.9176 1.03209 13.7822 1.02969 13.6337C0.991494 11.379 3.71669 11.5704 4.62869 11.6972C5.04149 10.8112 6.42809 7.90193 7.50059 6.43953C7.87469 5.92923 8.49289 5.57643 9.20349 5.33393C9.87609 5.10443 10.6374 4.97133 11.3433 4.89553L11.3506 4.89482C11.2699 4.32402 11.2144 3.82473 11.2144 3.52893C11.2144 2.91593 11.64 2.46483 12.2264 2.15393C12.9208 1.78563 13.8696 1.61053 14.4998 1.61053H17.8953C18.1697 1.61053 18.4399 1.51733 18.7414 1.41343C19.3182 1.21453 19.9933 0.981824 21.1186 1.12982C21.9189 1.23512 22.4975 1.76843 22.8986 2.43453C23.4656 3.37583 23.6774 4.61512 23.6485 5.17962C23.6146 5.84102 23.3496 7.31692 23.2145 8.03772C23.5211 8.07032 23.7872 8.12792 24.0009 8.24312C24.3911 8.45362 24.5867 8.79542 24.5057 9.37922C24.487 9.51432 24.4814 9.65683 24.4762 9.79623C24.4723 9.90063 24.4682 10.0038 24.463 10.0745C24.4092 10.7941 24.2083 11.3757 22.9531 11.3185C22.6614 12.664 22.0088 14.144 20.5907 15.0117L20.7564 16.6155L24.954 18.0656C25.3601 18.2058 25.765 18.4484 26.1327 18.7552C28.0454 18.6247 28.2704 17.2223 28.2718 16.5777H26.8073C26.4266 16.5777 26.0792 16.4212 25.8272 16.1694C25.5751 15.9187 25.4189 15.5713 25.4189 15.1893V10.2936C25.4189 9.91333 25.5751 9.56612 25.8265 9.31422L25.8279 9.31283C26.0798 9.06143 26.427 8.90522 26.8073 8.90522V8.90522ZM35.2533 9.65522H26.8073C26.6313 9.65522 26.4716 9.72663 26.3567 9.84163L26.3553 9.84303C26.2403 9.95793 26.1689 10.1176 26.1689 10.2936V15.1893C26.1689 15.3645 26.2409 15.5241 26.3567 15.6399V15.6413C26.4716 15.7563 26.6313 15.8277 26.8073 15.8277H35.2533C35.4285 15.8277 35.5881 15.7557 35.7039 15.6399C35.8197 15.5241 35.8917 15.3645 35.8917 15.1893V10.2936C35.8917 10.1176 35.8203 9.95793 35.7053 9.84303H35.7039C35.5881 9.72723 35.4285 9.65522 35.2533 9.65522V9.65522ZM22.4703 7.94353C22.6004 7.25213 22.8695 5.76733 22.9015 5.14163C22.9255 4.67113 22.7431 3.62822 22.257 2.82132C21.9619 2.33122 21.5554 1.94123 21.022 1.87103C20.0751 1.74653 19.487 1.94923 18.9846 2.12243C18.6203 2.24803 18.294 2.36053 17.8953 2.36053H14.4998C13.9619 2.36053 13.1572 2.50733 12.575 2.81613C12.2212 3.00373 11.9644 3.24453 11.9644 3.52893C11.9644 4.36203 12.454 7.02182 12.638 7.99212C12.9439 7.92032 13.1711 7.82602 13.3256 7.70882V7.70743C13.5131 7.56523 13.5771 7.36873 13.5354 7.11843L13.514 6.99292C13.4769 6.77802 13.4384 6.55493 13.427 6.32333C13.3899 5.56783 13.6163 4.91443 14.8571 4.85343C16.1349 4.79053 19.934 4.90463 20.3776 4.91823C20.6432 4.87203 21.8643 4.74632 21.8643 6.35132C21.8643 6.94252 21.9452 7.37342 22.1158 7.64732C22.2025 7.78652 22.3201 7.88503 22.4703 7.94353V7.94353ZM12.172 11.1613C11.6761 11.2037 10.8614 11.1474 10.781 10.3378C10.7689 10.2156 10.7348 10.0689 10.7008 9.92252C10.6625 9.75732 10.624 9.59213 10.6064 9.42093C10.5404 8.77933 10.7237 8.24033 11.8969 8.10823C11.7967 7.57803 11.6135 6.58473 11.4621 5.63333C11.4491 5.63603 11.436 5.63833 11.4225 5.63973C10.7643 5.71043 10.0585 5.83312 9.44369 6.04292C8.86689 6.23972 8.37659 6.51032 8.10419 6.88192C6.87799 8.55402 5.19499 12.2564 5.19019 12.267C5.11719 12.429 4.94299 12.5138 4.77579 12.4804C4.76709 12.4792 1.74679 11.8573 1.77669 13.6219C1.77839 13.7265 1.78729 13.83 1.80219 13.9312C1.86169 14.3354 2.02349 14.6131 2.22629 14.7852C2.42049 14.95 2.65429 15.0225 2.86939 15.0189C2.90229 15.0184 2.94009 15.0149 2.98179 15.0088C3.71439 14.9009 4.04269 15.4314 4.17439 16.3256C4.26809 16.9615 4.26019 17.8187 4.25179 18.7468C4.23599 20.4765 4.21789 22.466 4.87129 23.5179C5.02739 23.7693 5.43649 23.9256 5.92229 24.0107C6.54889 24.1206 7.27159 24.1011 7.80629 24.0121L7.68739 22.1821C7.68519 22.1272 7.67959 21.9303 7.69839 21.6489L6.25039 21.6386C6.04419 21.6378 5.87759 21.4698 5.87839 21.2636C5.87919 21.0574 6.04719 20.8908 6.25339 20.8916L7.79259 20.9025C7.99509 19.8239 8.56909 18.3996 10.1726 17.9839C12.0688 17.4923 13.7959 16.859 14.4001 16.6297L14.464 14.9117C13.0917 13.9961 12.4583 12.4933 12.172 11.1613V11.1613ZM23.0832 10.5702C23.6063 10.5605 23.6938 10.3164 23.716 10.0189C23.7235 9.91833 23.7264 9.84422 23.7292 9.76982C23.7353 9.60702 23.7418 9.44043 23.7645 9.27663C23.7936 9.06683 23.7466 8.95632 23.6465 8.90232C23.5345 8.84192 23.3698 8.80693 23.1686 8.78433C23.1834 9.18723 23.1816 9.83152 23.0832 10.5702ZM11.9467 8.85573C11.4172 8.92413 11.3273 9.11843 11.3506 9.34473C11.3631 9.46703 11.3968 9.61143 11.4302 9.75553C11.4689 9.92243 11.5078 10.0896 11.5252 10.2646C11.5422 10.4352 11.8107 10.4494 12.0441 10.4286C11.9562 9.78373 11.9421 9.22373 11.9467 8.85573V8.85573ZM15.1972 15.31L15.1418 16.7997C15.4711 17.3746 17.528 20.6291 20.0501 17.0582L19.8754 15.3676C19.2506 15.6154 18.5101 15.7615 17.6308 15.7648C16.6659 15.7684 15.864 15.599 15.1972 15.31V15.31ZM14.6014 17.3537C13.9337 17.6054 12.232 18.2222 10.3602 18.7075C8.36449 19.2248 8.42539 21.9153 8.43439 22.1493L8.68249 25.9542C11.8723 26.8963 14.6415 27.298 16.9963 27.3763L17.0584 19.4944C15.8452 19.1625 14.9552 17.923 14.6014 17.3537V17.3537ZM17.8048 19.5737L17.7432 27.3907C23.2381 27.4172 26.293 25.6743 26.9696 25.2388C27.0042 24.6285 27.0982 22.6187 26.9174 21.3529C26.8446 20.8429 26.5529 20.2943 26.1523 19.8241C25.7395 19.3397 25.22 18.9474 24.7108 18.7716L20.7267 17.3953C19.6716 18.9404 18.6776 19.5192 17.8048 19.5737Z" ></path></svg>