<svg width="512" height="360" viewBox="0 0 512 360" fill="none" xmlns="http://www.w3.org/2000/svg">
<path d="M467 0H45C20.238 0 0 20.149 0 45V315C0 339.86 20.251 360 45 360H467C491.762 360 512 339.851 512 315V45C512 20.143 491.752 0 467 0ZM460.09 30L267.624 223.094C261.76 228.976 250.243 228.98 244.376 223.094L51.91 30H460.09ZM30 309.485V50.515L159.065 180L30 309.485ZM51.91 330L180.244 201.248L223.129 244.273C240.703 261.904 271.304 261.897 288.872 244.273L331.757 201.249L460.09 330H51.91ZM482 309.485L352.935 180L482 50.515V309.485Z" fill="white"/>
</svg>
