<svg width="512" height="475" viewBox="0 0 512 475" fill="none" xmlns="http://www.w3.org/2000/svg">
<path d="M504.448 41.0188C502.055 38.6244 499.214 36.725 496.086 35.4292C492.958 34.1334 489.606 33.4666 486.221 33.4669C482.835 33.4673 479.483 34.1347 476.356 35.4311C473.228 36.7274 470.387 38.6274 467.994 41.0223L236.654 272.4L130.085 165.828C125.251 160.994 118.695 158.278 111.859 158.277C105.023 158.277 98.4658 160.992 93.631 165.825C91.2365 168.218 89.337 171.059 88.0409 174.187C86.7447 177.314 86.0775 180.666 86.0771 184.051C86.0768 187.437 86.7435 190.789 88.039 193.916C89.3345 197.044 91.2336 199.886 93.6276 202.279L218.427 327.085C220.821 329.48 223.663 331.379 226.791 332.675C229.919 333.971 233.271 334.638 236.657 334.638C240.043 334.638 243.396 333.971 246.524 332.675C249.652 331.379 252.494 329.48 254.888 327.085L504.455 77.4732C509.287 72.6375 512.001 66.0807 512 59.2446C511.999 52.4085 509.282 45.8527 504.448 41.0188Z" fill="#EC691F"/>
<path d="M448.788 206.228C441.951 206.228 435.394 208.944 430.559 213.779C425.725 218.613 423.009 225.17 423.009 232.007V423.009H51.5571V51.5571H345.673C359.913 51.5571 371.452 40.0186 371.452 25.7786C371.452 18.9417 368.736 12.3848 363.901 7.55037C359.067 2.71595 352.51 0 345.673 0H25.7786C18.9417 0 12.3848 2.71595 7.55037 7.55037C2.71595 12.3848 0 18.9417 0 25.7786L0 448.787C0 455.624 2.71595 462.181 7.55037 467.016C12.3848 471.85 18.9417 474.566 25.7786 474.566H448.788C463.028 474.566 474.566 463.028 474.566 448.787V232.007C474.566 225.17 471.85 218.613 467.016 213.779C462.181 208.944 455.624 206.228 448.788 206.228Z" fill="white"/>
</svg>
