<svg width="512" height="512" viewBox="0 0 512 512" xmlns="http://www.w3.org/2000/svg">
<path d="M389.257 338.698C372.529 322.184 351.647 322.184 335.027 338.698C322.348 351.27 309.669 363.842 297.204 376.627C293.795 380.143 290.918 380.889 286.763 378.545C278.559 374.07 269.823 370.448 261.938 365.547C225.181 342.427 194.391 312.702 167.116 279.248C153.585 262.627 141.546 244.834 133.129 224.804C131.424 220.756 131.744 218.092 135.046 214.789C147.725 202.537 160.084 189.965 172.549 177.393C189.916 159.92 189.916 139.464 172.443 121.884C162.534 111.869 152.626 102.068 142.718 92.0526C132.489 81.8245 122.368 71.4899 112.033 61.3684C95.3062 45.0674 74.4239 45.0674 57.8032 61.4749C45.0182 74.0469 32.7658 86.9386 19.7676 99.2975C7.72833 110.698 1.65541 124.655 0.376906 140.956C-1.6474 167.485 4.85169 192.522 14.0143 216.92C32.7658 267.421 61.3191 312.276 95.9454 353.401C142.718 409.016 198.546 453.018 263.856 484.768C293.262 499.044 323.733 510.018 356.868 511.83C379.668 513.108 399.485 507.355 415.359 489.562C426.227 477.416 438.479 466.336 449.986 454.723C467.032 437.463 467.139 416.581 450.199 399.534C429.956 379.184 409.606 358.941 389.257 338.698ZM368.907 253.784L408.221 247.072C402.042 210.954 384.995 178.245 359.105 152.249C331.724 124.868 297.097 107.608 258.955 102.281L253.415 141.808C282.927 145.963 309.776 159.281 330.978 180.483C351.008 200.513 364.113 225.87 368.907 253.784ZM430.382 82.89C384.995 37.5029 327.569 8.84302 264.176 0L258.636 39.5272C313.398 47.1983 363.047 72.0226 402.255 111.124C439.438 148.307 463.836 195.292 472.679 246.965L511.993 240.253C501.659 180.376 473.425 126.04 430.382 82.89Z"/>
</svg>
