<svg width="30" height="24" viewBox="0 0 30 24" xmlns="http://www.w3.org/2000/svg">
<path d="M14.7177 20.0975C14.4253 20.1553 14.1323 20.2006 13.8398 20.233C13.4471 20.2767 13.0555 20.2987 12.667 20.2987C9.805 20.2987 7.213 19.1647 5.33587 17.3315C3.45597 15.4954 2.29297 12.959 2.29297 10.1581C2.29297 8.5203 2.69067 6.97298 3.39687 5.60318C2.97487 6.07798 2.60357 6.59198 2.28797 7.1368C1.48497 8.523 1.04297 10.1101 1.04297 11.7581C1.04297 14.3504 2.11857 16.6971 3.85727 18.3953C5.59907 20.0964 8.0067 21.1487 10.667 21.1487C11.3714 21.1487 12.0706 21.0735 12.7521 20.926C13.4304 20.7791 14.0898 20.5621 14.7177 20.2779V20.0975ZM7.1547 14.4558C6.9476 14.4558 6.7797 14.2879 6.7797 14.0808C6.7797 13.8737 6.9476 13.7058 7.1547 13.7058H8.8855V12.1975C7.8603 12.1909 7.1578 12.1832 7.1519 12.1832C6.9457 12.1816 6.7797 12.013 6.7813 11.8068C6.7829 11.6006 6.9515 11.4346 7.1577 11.4362C7.1636 11.4362 7.8638 11.4438 8.8855 11.4504V4.04857C8.8855 3.84147 9.0534 3.67357 9.2605 3.67357H15.5962C15.8662 3.65267 19.2046 3.45658 19.2046 6.65028C19.2046 8.8015 19.1322 9.5407 19.0906 9.7878L19.1076 9.7913C19.1063 9.7977 18.6526 12.0628 15.7985 12.1612C14.3049 12.2127 11.6188 12.2116 9.6355 12.2018V13.7058H11.5975C11.8046 13.7058 11.9725 13.8737 11.9725 14.0808C11.9725 14.2879 11.8046 14.4558 11.5975 14.4558H9.6355V16.7928C9.6355 16.9999 9.4676 17.1678 9.2605 17.1678C9.0534 17.1678 8.8855 16.9999 8.8855 16.7928V14.4558H7.1547ZM9.6355 4.42357V11.4548C11.6116 11.4646 14.2864 11.4655 15.7751 11.4142C18.0362 11.3363 18.3742 9.6436 18.3752 9.6389C18.3835 9.5991 18.3986 9.56 18.4206 9.5232C18.4206 9.5232 18.4546 9.4595 18.4546 6.65028C18.4546 4.22888 15.8189 4.40768 15.6512 4.42138L15.6105 4.42357H9.6355ZM18.453 14.0247C18.8843 13.9289 20.139 13.528 20.5059 12.0606C20.6459 11.5008 20.7008 11.0269 20.7459 10.6384C20.8768 9.5087 20.9417 8.952 22.1948 8.8217C21.8708 6.61127 20.7672 4.66287 19.1733 3.23647C17.455 1.69867 15.1653 0.767578 12.667 0.767578C10.0068 0.767578 7.5991 1.81978 5.85727 3.52098C5.80157 3.57538 5.74667 3.63048 5.69237 3.68618L5.70617 3.70978L5.61997 3.76107C4.02117 5.43707 3.04297 7.6859 3.04297 10.1581C3.04297 12.7504 4.11857 15.0971 5.85727 16.7953C7.5991 18.4964 10.0067 19.5487 12.667 19.5487C13.0355 19.5487 13.3998 19.5286 13.7578 19.4888C14.0823 19.4528 14.4028 19.4011 14.7177 19.3343V14.6425C14.7177 14.2601 14.874 13.9126 15.1255 13.6611C15.377 13.4096 15.7245 13.2533 16.1069 13.2533H17.2094C17.5917 13.2533 17.9393 13.4096 18.1908 13.6611C18.2965 13.7668 18.3854 13.8895 18.453 14.0247ZM22.9516 8.8404C23.4769 8.9583 23.8221 9.3095 24.0446 9.766C24.265 10.2183 24.3553 10.7754 24.3821 11.2869C24.4067 11.7544 24.3785 12.1855 24.3502 12.4541C24.3282 12.6629 24.2704 12.8604 24.2147 13.051C24.1624 13.2296 24.1123 13.4011 24.1156 13.5151C24.1201 13.6669 24.3455 13.7671 25.2466 13.7403L25.3274 13.7378C26.2089 13.7108 28.3576 13.6449 29.0702 14.4184C29.4784 14.8615 29.4842 15.4788 28.7306 16.3421C28.9402 16.4555 29.1021 16.6201 29.2192 16.8134C29.3369 17.0076 29.4054 17.2283 29.4283 17.4515C29.4506 17.6687 29.43 17.893 29.3702 18.1005C29.3075 18.3178 29.2019 18.5178 29.0569 18.6774C29.2119 18.8549 29.3248 19.073 29.3898 19.3064C29.4559 19.5435 29.4728 19.8001 29.4341 20.047C29.3937 20.3037 29.2938 20.5505 29.1275 20.7567C28.9464 20.9812 28.6925 21.1562 28.3591 21.2423C28.4087 21.4195 28.4348 21.6052 28.4348 21.7895C28.4348 22.05 28.3831 22.3125 28.2728 22.5498C28.1579 22.797 27.9807 23.0151 27.7337 23.1749C27.478 23.3405 27.154 23.4405 26.7563 23.4405C24.909 23.4405 21.94 23.4831 21.9305 23.4831C21.8998 23.4833 21.87 23.4799 21.8415 23.4731L21.8412 23.4743L18.5213 22.6835C18.4515 22.8831 18.3373 23.0622 18.1908 23.2087C17.9393 23.4602 17.5917 23.6165 17.2094 23.6165H16.1069C15.7245 23.6165 15.377 23.4602 15.1255 23.2087C14.874 22.9572 14.7177 22.6096 14.7177 22.2273V21.0922C14.1308 21.3357 13.5256 21.5252 12.9103 21.6584C12.175 21.8176 11.4227 21.8987 10.667 21.8987C7.805 21.8987 5.21297 20.7647 3.33587 18.9315C1.45597 17.0954 0.292969 14.559 0.292969 11.7581C0.292969 9.9782 0.771369 8.2624 1.64057 6.76178C2.47457 5.32218 3.66947 4.08167 5.14747 3.17377C5.20947 3.11007 5.27217 3.04698 5.33587 2.98478C7.213 1.15148 9.8053 0.0175781 12.667 0.0175781C15.3532 0.0175781 17.8183 1.02158 19.6713 2.67988C21.4223 4.24688 22.6254 6.39878 22.9516 8.8404ZM18.5986 21.9313L21.9748 22.7356C22.4335 22.7304 25.9271 22.6905 26.7563 22.6905C27.0016 22.6905 27.1892 22.6368 27.3265 22.5479C27.4476 22.4696 27.5355 22.3607 27.5932 22.2364C27.6556 22.1023 27.6848 21.9475 27.6848 21.7895C27.6848 21.5501 27.6189 21.3125 27.5011 21.1304C27.4616 21.0693 27.4393 20.9962 27.4411 20.918C27.4459 20.7118 27.6172 20.5485 27.8234 20.5533C28.1784 20.5628 28.4115 20.4528 28.5445 20.2879C28.626 20.1868 28.6754 20.0631 28.6959 19.9328C28.7179 19.7925 28.7076 19.6444 28.669 19.5056C28.6065 19.281 28.4716 19.0893 28.2852 19.0158C28.1563 18.9789 28.0514 18.8737 28.0217 18.7334C27.9789 18.5312 28.1081 18.3324 28.3103 18.2896C28.4761 18.2542 28.5955 18.093 28.6524 17.8955C28.6857 17.7801 28.6969 17.6529 28.6841 17.5277C28.6719 17.4085 28.6379 17.2947 28.5806 17.2002C28.4831 17.0392 28.3029 16.9241 28.0261 16.9236C27.9172 16.9305 27.8063 16.89 27.7267 16.8036C27.5868 16.6516 27.5967 16.4147 27.7487 16.2748C28.5578 15.5295 28.7049 15.1266 28.5194 14.9252C28.0378 14.4024 26.1305 14.4609 25.348 14.4848L25.2672 14.4873C23.7682 14.5318 23.3862 14.127 23.3686 13.5357C23.3618 13.3046 23.4279 13.0785 23.4969 12.843C23.5429 12.6853 23.5909 12.5218 23.606 12.3779C23.6316 12.1347 23.6572 11.7451 23.6351 11.3249C23.6128 10.8998 23.5416 10.4447 23.3708 10.0942C23.2287 9.8025 23.01 9.5873 22.6782 9.5524C22.6217 9.5465 22.5615 9.545 22.4978 9.5483C21.6212 9.5943 21.5798 9.9498 21.4901 10.7234C21.4425 11.134 21.3844 11.6346 21.2325 12.2422C20.7639 14.1165 19.1569 14.6327 18.5986 14.7573V21.9313ZM17.2094 14.0033H16.1069C15.9314 14.0033 15.7716 14.0754 15.6557 14.1913C15.5398 14.3072 15.4677 14.467 15.4677 14.6425V22.2273C15.4677 22.4027 15.5398 22.5626 15.6557 22.6785C15.7716 22.7944 15.9314 22.8665 16.1069 22.8665H17.2094C17.3848 22.8665 17.5447 22.7944 17.6606 22.6785C17.7765 22.5626 17.8486 22.4027 17.8486 22.2273V14.6425C17.8486 14.467 17.7765 14.3072 17.6606 14.1913C17.5447 14.0754 17.3848 14.0033 17.2094 14.0033Z"/>
</svg>
