<svg width="29" height="29" viewBox="0 0 29 29" xmlns="http://www.w3.org/2000/svg">
<path d="M0.382328 18.1596L6.0051 17.5447C6.1952 17.5245 6.3673 17.6504 6.4092 17.8321L6.772 19.0761C7.078 18.9545 7.7081 18.6599 8.4335 18.0678C9.0963 17.5267 10.0886 16.9462 11.2783 16.7749C12.1623 16.6477 13.1516 16.7453 14.1898 17.2492C15.8978 18.0783 17.0224 17.916 17.7132 17.8162C17.916 17.787 18.0868 17.7623 18.2385 17.7623C18.3701 17.7623 18.5531 17.7728 18.7656 17.7972C19.1883 17.495 20.5892 16.5289 21.2474 16.507C21.9537 16.4835 22.6736 16.9636 22.8224 17.0687L23.1795 16.8801C23.1958 16.8715 23.2125 16.8643 23.2293 16.8583C23.2333 16.8568 24.6786 16.3488 25.3062 17.1856C25.3884 17.2952 25.3744 17.4277 25.3267 17.5483C25.5401 17.4591 25.7418 17.3372 25.946 17.2276C27.4226 16.3355 29.0076 17.9469 28.4975 18.4833C27.4971 19.5293 20.8703 23.9913 20.8513 24.0041C20.8295 24.0188 20.8068 24.0308 20.7834 24.0404C20.556 24.1446 18.1922 25.1769 15.0946 24.5007C14.3785 24.3444 13.8808 24.239 13.542 24.1704C13.1788 24.0968 12.9062 24.046 12.7021 24.0112C12.2978 23.9422 11.9406 23.9337 11.5944 24.0009C11.2486 24.0681 10.903 24.2135 10.5208 24.4524C9.6052 25.0246 8.9659 25.4937 8.7021 25.6935L9.1817 27.3378C9.2391 27.536 9.125 27.7433 8.9268 27.8007L8.9017 27.8071C3.91863 28.8913 2.91033 26.1909 1.22463 21.6759C0.884228 20.7641 0.514328 19.7733 0.0546283 18.6791C-0.0253717 18.4882 0.0644286 18.2684 0.255329 18.1884C0.296829 18.171 0.339728 18.1616 0.382328 18.1596ZM14.2636 8.71529C14.1132 8.57379 14.1059 8.33689 14.2474 8.18649C14.3889 8.03609 14.6258 8.02879 14.7762 8.17029L16.6408 9.92529L20.7472 6.11209C20.8984 5.97139 21.1353 5.97989 21.276 6.13109C21.4167 6.28229 21.4082 6.51919 21.257 6.65989L16.894 10.7114C16.7512 10.8445 16.5271 10.8458 16.3828 10.71L14.2636 8.71529ZM11.1437 4.02919C10.9403 5.41529 10.0675 13.5336 17.1522 15.715C24.6452 13.1466 23.497 5.52799 23.2475 4.24969L17.1088 1.60979L11.1437 4.02919ZM17.0517 16.4677C8.5291 13.9486 10.433 3.72629 10.4381 3.69699C10.4598 3.57399 10.5424 3.46459 10.6666 3.41429L16.9725 0.856591C17.062 0.820391 17.1654 0.81849 17.261 0.85959L23.7213 3.63779C23.827 3.68389 23.9104 3.77759 23.9381 3.89849C23.9444 3.92589 26.2343 13.4652 17.3027 16.4534C17.2259 16.4859 17.1379 16.493 17.0517 16.4677ZM25.4439 6.33589C25.4108 6.13209 25.5491 5.93979 25.7529 5.90669C25.9567 5.87359 26.149 6.01189 26.1821 6.21569C26.1847 6.23199 27.1514 11.8848 23.0546 15.3368C22.8969 15.4694 22.6614 15.4491 22.5288 15.2914C22.3962 15.1337 22.4165 14.8982 22.5742 14.7656C26.3421 11.5907 25.4464 6.35099 25.4439 6.33589ZM8.3423 6.21569C8.3754 6.01189 8.5677 5.87359 8.7715 5.90669C8.9753 5.93979 9.1136 6.13209 9.0805 6.33589C9.078 6.35099 8.1823 11.5907 11.9502 14.7656C12.1079 14.8982 12.1282 15.1337 11.9956 15.2914C11.863 15.4491 11.6275 15.4694 11.4698 15.3368C7.373 11.8848 8.3397 6.23199 8.3423 6.21569ZM24.8527 17.8142C24.8064 17.76 24.7584 17.7002 24.7086 17.6338C24.4376 17.2726 23.6455 17.5096 23.5011 17.5566L21.2024 18.7702C21.3358 18.9179 21.4398 19.086 21.5034 19.2769C21.5377 19.3797 21.5663 19.4755 21.59 19.5647L24.8527 17.8142ZM21.6788 20.353C21.6319 20.7267 21.4161 20.7716 21.4161 20.7716C21.3713 20.7828 21.3264 20.7854 21.2831 20.7805C20.9633 20.7614 17.1035 20.5352 16.4873 20.7966C16.2973 20.8766 16.0781 20.7874 15.9981 20.5974C15.9181 20.4074 16.0073 20.1882 16.1973 20.1082C18.2198 19.2504 21.1042 20.4912 20.7944 19.5113C20.7313 19.3221 20.565 19.163 20.3461 19.0312C20.3389 19.0272 20.3316 19.023 20.3247 19.0185C20.2394 18.9687 20.1467 18.9228 20.0493 18.8807C19.4062 18.603 18.5991 18.5123 18.2385 18.5123C18.1312 18.5123 17.9883 18.533 17.8186 18.5574C17.0422 18.6695 15.7783 18.852 13.8646 17.923C12.9768 17.4921 12.1344 17.4081 11.3837 17.5161C10.3532 17.6645 9.4865 18.1732 8.9051 18.6478C8.0654 19.3333 7.3175 19.6675 6.982 19.796L8.4787 24.9276C8.8214 24.6765 9.3894 24.2764 10.1252 23.8166C10.5862 23.5285 11.0138 23.351 11.4538 23.2655C11.8934 23.1802 12.336 23.189 12.8281 23.273C13.0014 23.3025 13.2724 23.3537 13.6884 23.438C14.1288 23.5272 14.6468 23.6361 15.2528 23.7683C18.0732 24.3839 20.198 23.4837 20.4557 23.3673C20.8564 23.0972 26.38 19.3677 27.7569 18.1546C27.3044 17.3976 26.2769 17.8995 26.274 17.9009L21.7671 20.319C21.7385 20.3343 21.7089 20.3456 21.6788 20.353ZM19.7907 17.9975C19.9798 18.0512 20.1676 18.1156 20.3451 18.1923C20.4081 18.2195 20.47 18.2483 20.5304 18.2788L22.0554 17.4736C21.8367 17.3599 21.5448 17.2449 21.2708 17.254C20.9628 17.2642 20.3044 17.6578 19.7907 17.9975ZM5.77393 18.3228L0.937428 18.8518C1.29943 19.7401 1.62333 20.6075 1.92483 21.4151C3.42043 25.4212 4.33383 27.867 8.3495 27.1536L5.77393 18.3228Z"/>
</svg>
